<svg width="24" height="22" viewBox="0 0 24 22" fill="none" xmlns="http://www.w3.org/2000/svg">
<path d="M24 0.78125H0V18.2266H14.7643V21.2543L17.3884 19.9725L20.0125 21.2543V18.2266H24V0.78125ZM17.3884 15.413C16.0701 15.413 14.9978 14.3406 14.9978 13.0224C14.9978 11.7042 16.0701 10.6318 17.3884 10.6318C18.7066 10.6318 19.7791 11.7042 19.7791 13.0224C19.7791 14.3406 18.7066 15.413 17.3884 15.413ZM17.3884 18.4075L16.1706 19.0023V16.6177C16.5531 16.7477 16.9623 16.8193 17.3884 16.8193C17.8143 16.8193 18.2236 16.7477 18.6063 16.6177V19.0023L17.3884 18.4075ZM22.5938 16.8204H20.0125V15.7626C20.7343 15.071 21.1853 14.0987 21.1853 13.0224C21.1853 10.9288 19.4821 9.22552 17.3884 9.22552C15.2948 9.22552 13.5916 10.9288 13.5916 13.0224C13.5916 14.0987 14.0424 15.0712 14.7643 15.7626V16.8204H1.40625V2.1875H22.5938V16.8204Z" fill="black"/>
</svg>
